<svg width="197" height="67" viewBox="0 0 197 67" fill="none" xmlns="http://www.w3.org/2000/svg">
<path d="M57.9799 3.12362C57.9799 1.974 57.049 1.04309 55.8993 1.04309C55.8208 1.04309 55.7479 1.05992 55.675 1.06552V1.04309H49.6802V10.6382H57.9799V3.34233H57.9574C57.9687 3.26943 57.9799 3.19652 57.9799 3.12362Z" fill="#79C6C0" fill-opacity="0.62"/>
<path d="M194.919 41.5657H163.801V49.8654H197V43.6462C197 42.4966 196.069 41.5657 194.919 41.5657Z" fill="#79C6C0" fill-opacity="0.62"/>
<path d="M181.012 30.2097H163.897V38.1841H183.093V32.2902C183.087 31.1406 182.156 30.2097 181.012 30.2097Z" fill="#79C6C0" fill-opacity="0.62"/>
<path d="M173.491 20.5923C173.491 19.4426 172.56 18.5117 171.41 18.5117C171.332 18.5117 171.259 18.5285 171.186 18.5342V18.5117H163.711V26.6095H173.485V20.8166H173.463C173.474 20.7381 173.491 20.6708 173.491 20.5923Z" fill="#79C6C0" fill-opacity="0.62"/>
<path d="M24.5009 37.7131L23.7831 38.7113C22.1512 40.9882 19.5716 42.3453 16.8798 42.3453C12.1467 42.3453 8.29408 38.4646 8.29408 33.6923C8.29408 28.92 12.1467 25.0393 16.8798 25.0393C19.5547 25.0393 22.14 26.3796 23.7943 28.6171L24.4897 29.5593L30.6023 25.2917L31.2472 24.815L30.4845 23.7214C30.0247 23.0653 29.4863 22.4316 28.7797 21.7306C25.6449 18.5958 21.4222 16.8686 16.8854 16.8686C12.3093 16.8686 8.06415 18.5958 4.91812 21.7419C1.74966 24.9832 0 29.2284 0 33.6923C0 38.1562 1.74406 42.4013 4.92935 45.6539C8.06416 48.7887 12.3093 50.516 16.8854 50.516C21.4222 50.516 25.6449 48.7887 28.7797 45.6539C29.4134 45.0202 29.963 44.3305 30.4957 43.6631L31.393 42.5415L31.0902 42.3228L24.5009 37.7131Z" fill="white"/>
<path d="M35.1564 49.8654H43.456V2.08614C43.456 0.936519 42.5251 0 41.3699 0H35.1564V49.8654Z" fill="white"/>
<path d="M141.302 16.6667C138.151 16.6667 135.207 17.5303 132.677 19.0276V2.14784C132.677 0.998226 131.746 0.0617065 130.591 0.0617065H124.378V49.8598H132.677V48.1438C135.01 49.529 137.708 50.3701 140.59 50.4879C140.814 50.4991 141.039 50.5047 141.263 50.5047C141.269 50.5047 141.274 50.5047 141.28 50.5047C141.285 50.5047 141.291 50.5047 141.297 50.5047C141.499 50.5047 141.695 50.4991 141.891 50.4879C141.964 50.4879 142.037 50.4879 142.115 50.4823C142.334 50.4711 142.547 50.4543 142.76 50.4374C142.828 50.4318 142.895 50.4262 142.968 50.4206C143.131 50.4038 143.293 50.3814 143.456 50.3645C143.579 50.3477 143.708 50.3365 143.831 50.3141C143.927 50.2972 144.022 50.2804 144.117 50.2636C144.314 50.2299 144.504 50.1963 144.701 50.1626C144.723 50.157 144.746 50.1514 144.768 50.1458C147.454 49.5962 149.933 48.4074 152.036 46.6633C152.204 46.5287 152.367 46.3829 152.529 46.2427C152.541 46.2315 152.552 46.2203 152.569 46.2091C156.04 43.1079 158.233 38.5992 158.233 33.5801C158.221 24.243 150.645 16.6667 141.302 16.6667ZM141.302 42.2107C136.541 42.2107 132.677 38.3524 132.677 33.5857C132.677 28.8246 136.536 24.9608 141.302 24.9608C146.063 24.9608 149.927 28.819 149.927 33.5857C149.927 38.3524 146.063 42.2107 141.302 42.2107Z" fill="white"/>
<path d="M118.579 31.7912C118.579 31.7575 118.574 31.7295 118.574 31.6958C118.361 27.832 116.751 24.2317 113.998 21.4726C111.07 18.5453 107.145 16.9359 102.944 16.9359H102.939C102.681 16.9359 102.429 16.9415 102.176 16.9583C97.9198 17.1658 94.1064 19.0725 91.409 22.0166C88.7116 19.0725 84.8983 17.1658 80.6419 16.9583C80.3895 16.9471 80.1315 16.9359 79.8792 16.9359H79.8736C77.1986 16.9359 74.6751 17.6088 72.4768 18.7921C72.3141 18.063 71.6636 17.5191 70.8841 17.5191H64.2163V49.871H72.516V32.5875C72.516 30.5238 73.3404 28.6564 74.6694 27.2992C76.0097 25.9814 77.8435 25.1682 79.8736 25.1682C81.898 25.1682 83.7374 25.9814 85.0777 27.2992C86.4068 28.6564 87.2311 30.5238 87.2311 32.5875V49.8598H95.5308V32.5875C95.5308 28.4881 98.8563 25.1682 102.95 25.1682C104.98 25.1682 106.814 25.9814 108.154 27.2992C109.483 28.6564 110.308 30.5238 110.308 32.5875V49.8598H118.607V32.5875C118.602 32.3239 118.596 32.0547 118.579 31.7912Z" fill="white"/>
<path d="M49.6802 49.8654H57.9799V19.5996C57.9799 18.4499 57.049 17.5134 55.8937 17.5134H49.6802V49.8654Z" fill="white"/>
<path d="M35.1559 56.0846H36.1373V63.3188H35.1559V56.0846Z" fill="white"/>
<path d="M38.7842 58.4736H39.7039V59.2194H39.7263C39.8441 58.9614 40.0403 58.754 40.3263 58.5913C40.6124 58.4287 40.9432 58.3502 41.319 58.3502C41.5489 58.3502 41.7732 58.3838 41.9863 58.4567C42.1994 58.5296 42.3901 58.6362 42.5471 58.7876C42.7097 58.939 42.8331 59.1297 42.9284 59.3652C43.0238 59.6007 43.0742 59.8755 43.0742 60.1952V63.3132H42.1545V60.4588C42.1545 60.2344 42.1265 60.0438 42.0648 59.8811C42.0031 59.7185 41.919 59.5895 41.818 59.4942C41.7171 59.3933 41.5994 59.326 41.4648 59.2811C41.3302 59.2362 41.1956 59.2138 41.0498 59.2138C40.8591 59.2138 40.6797 59.2418 40.517 59.3035C40.3544 59.3652 40.2086 59.4606 40.0852 59.5951C39.9618 59.7297 39.8665 59.898 39.7992 60.0998C39.7319 60.3017 39.6983 60.5485 39.6983 60.8233V63.3188H38.7786V58.4736H38.7842Z" fill="white"/>
<path d="M44.9022 58.4736H45.9621L47.4146 62.1804L48.8053 58.4736H49.7867L47.8856 63.3188H46.8762L44.9022 58.4736Z" fill="white"/>
<path d="M52.3105 61.2326C52.3105 61.4457 52.3553 61.6364 52.4507 61.8103C52.5404 61.9841 52.6638 62.1299 52.8152 62.2533C52.9666 62.3767 53.1405 62.472 53.3367 62.5393C53.533 62.6066 53.7405 62.6402 53.948 62.6402C54.234 62.6402 54.4807 62.5729 54.6938 62.4383C54.9069 62.3038 55.0976 62.1299 55.277 61.9112L55.9725 62.4439C55.4621 63.1057 54.7443 63.4365 53.8246 63.4365C53.4433 63.4365 53.0956 63.3693 52.7871 63.2403C52.4787 63.1113 52.2152 62.9318 52.0021 62.7019C51.789 62.472 51.6207 62.2028 51.5086 61.8944C51.3908 61.5859 51.3347 61.2495 51.3347 60.8906C51.3347 60.5317 51.3964 60.1952 51.5254 59.8867C51.6487 59.5783 51.8226 59.3091 52.0469 59.0792C52.2656 58.8493 52.5348 58.6698 52.8376 58.5409C53.1461 58.4119 53.4769 58.3446 53.8414 58.3446C54.2732 58.3446 54.6321 58.4175 54.9294 58.5689C55.2266 58.7203 55.4677 58.9166 55.6584 59.1577C55.8491 59.3989 55.9893 59.6736 56.0734 59.9765C56.1575 60.2793 56.2024 60.5877 56.2024 60.9018V61.227H52.3105V61.2326ZM55.2154 60.498C55.2098 60.2961 55.1761 60.1055 55.12 59.9372C55.064 59.769 54.9742 59.6176 54.8621 59.4942C54.7443 59.3708 54.6041 59.2699 54.4303 59.197C54.2564 59.1241 54.0545 59.0904 53.8246 59.0904C53.6003 59.0904 53.3928 59.1353 53.2077 59.2194C53.0227 59.3035 52.8601 59.4157 52.7311 59.5503C52.6021 59.6849 52.5012 59.8363 52.4283 60.0045C52.3554 60.1728 52.3217 60.3354 52.3217 60.498H55.2154Z" fill="white"/>
<path d="M60.8958 59.6905C60.7892 59.5559 60.6546 59.4381 60.492 59.3484C60.3294 59.2586 60.1387 59.2082 59.9031 59.2082C59.6844 59.2082 59.4938 59.253 59.3368 59.3484C59.1742 59.4381 59.0956 59.5727 59.0956 59.7521C59.0956 59.8979 59.1405 60.0101 59.2358 60.0998C59.3255 60.1896 59.4377 60.2625 59.5611 60.3129C59.6844 60.369 59.8191 60.4083 59.9649 60.4363C60.1107 60.4643 60.2284 60.4868 60.335 60.5092C60.5312 60.5597 60.7163 60.6158 60.8901 60.683C61.064 60.7503 61.2154 60.8401 61.3388 60.9466C61.4621 61.0532 61.5631 61.1878 61.636 61.3448C61.7089 61.5018 61.7426 61.6925 61.7426 61.9168C61.7426 62.1916 61.6865 62.4215 61.5687 62.6178C61.4509 62.8141 61.3051 62.9711 61.1201 63.0944C60.935 63.2178 60.7275 63.3075 60.492 63.358C60.2565 63.4141 60.0209 63.4421 59.7798 63.4421C59.376 63.4421 59.0227 63.3805 58.7199 63.2571C58.4171 63.1337 58.1479 62.9094 57.9067 62.5841L58.6021 62.0121C58.7536 62.1635 58.9162 62.2925 59.1012 62.4103C59.2863 62.528 59.5106 62.5841 59.7742 62.5841C59.8919 62.5841 60.0097 62.5729 60.1275 62.5505C60.2452 62.528 60.3518 62.4888 60.4415 62.4383C60.5312 62.3879 60.6098 62.3206 60.6658 62.242C60.7219 62.1635 60.7499 62.0738 60.7499 61.9729C60.7499 61.8383 60.7051 61.7261 60.621 61.6364C60.5369 61.5467 60.4359 61.4794 60.3125 61.4289C60.1948 61.3784 60.0658 61.3392 59.9368 61.3055C59.8022 61.2775 59.6845 61.2494 59.5835 61.227C59.3873 61.1822 59.1966 61.1261 59.0227 61.0644C58.8433 61.0027 58.6862 60.9242 58.5517 60.8176C58.4171 60.7167 58.3049 60.5877 58.2264 60.4307C58.1423 60.2737 58.103 60.0774 58.103 59.8475C58.103 59.5951 58.1535 59.3764 58.26 59.1857C58.3666 59.0007 58.5068 58.8437 58.6806 58.7203C58.8545 58.5969 59.0508 58.5072 59.2751 58.4455C59.4938 58.3838 59.7181 58.3558 59.9424 58.3558C60.2677 58.3558 60.5817 58.4175 60.8845 58.5408C61.1817 58.6642 61.4229 58.8661 61.6024 59.1521L60.8958 59.6905Z" fill="white"/>
<path d="M66.4702 59.2754H65.1523V61.4737C65.1523 61.6083 65.1579 61.7429 65.1635 61.8775C65.1691 62.0121 65.1972 62.1299 65.242 62.2364C65.2869 62.343 65.3542 62.4271 65.4439 62.4944C65.5336 62.5617 65.6683 62.5897 65.8477 62.5897C65.9543 62.5897 66.0664 62.5785 66.1842 62.5617C66.3019 62.5392 66.4029 62.5056 66.4982 62.4495V63.2851C66.3917 63.3468 66.2458 63.386 66.072 63.4141C65.8982 63.4365 65.7636 63.4477 65.6682 63.4477C65.3149 63.4477 65.0401 63.3973 64.8439 63.3019C64.6476 63.201 64.5074 63.0776 64.4121 62.9206C64.3224 62.7636 64.2663 62.5897 64.2494 62.3934C64.2326 62.1972 64.2214 62.0009 64.2214 61.8046V59.2811H63.1615V58.4847H64.2214V57.1276H65.1411V58.4847H66.4589V59.2754H66.4702Z" fill="white"/>
<path d="M68.5338 56.7407C68.5338 56.5557 68.6011 56.3986 68.7357 56.264C68.8703 56.1295 69.0273 56.0622 69.2124 56.0622C69.3974 56.0622 69.5544 56.1295 69.689 56.264C69.8236 56.3986 69.8909 56.5557 69.8909 56.7407C69.8909 56.9258 69.8236 57.0828 69.689 57.2174C69.5544 57.352 69.3974 57.4193 69.2124 57.4193C69.0273 57.4193 68.8703 57.352 68.7357 57.2174C68.6011 57.0828 68.5338 56.9202 68.5338 56.7407ZM68.7525 58.4736H69.6722V63.3188H68.7525V58.4736Z" fill="white"/>
<path d="M72.1511 58.4736H73.0091V59.2306H73.0316C73.054 59.1633 73.1045 59.0792 73.1886 58.9727C73.2727 58.8717 73.3849 58.7708 73.5138 58.6811C73.6484 58.5913 73.8055 58.5128 73.9849 58.4455C74.1644 58.3782 74.3663 58.3502 74.585 58.3502C74.9439 58.3502 75.2467 58.4231 75.4934 58.5745C75.7402 58.7259 75.9421 58.9502 76.0935 59.2474C76.2505 58.9502 76.4692 58.7203 76.7552 58.5745C77.0412 58.4231 77.3328 58.3502 77.6244 58.3502C78.0002 58.3502 78.303 58.4119 78.5441 58.5353C78.7797 58.6586 78.9703 58.8213 79.1049 59.0231C79.2395 59.225 79.3349 59.4549 79.3853 59.7073C79.4358 59.9653 79.4638 60.2288 79.4638 60.498V63.3188H78.5441V60.6214C78.5441 60.4363 78.5329 60.2625 78.5105 60.0886C78.4881 59.9204 78.4376 59.769 78.3647 59.64C78.2918 59.511 78.1852 59.4045 78.0506 59.326C77.9161 59.2474 77.7366 59.2082 77.5067 59.2082C77.0636 59.2082 76.7496 59.3428 76.5589 59.6176C76.3683 59.8924 76.2729 60.24 76.2729 60.6719V63.3188H75.3532V60.784C75.3532 60.5541 75.342 60.341 75.3196 60.1503C75.2972 59.9597 75.2467 59.797 75.1738 59.6568C75.1009 59.5166 74.9999 59.4101 74.8654 59.3316C74.7308 59.2531 74.5513 59.2138 74.327 59.2138C74.1644 59.2138 74.0074 59.2474 73.8503 59.3091C73.6989 59.3764 73.5643 59.4718 73.4465 59.6007C73.3288 59.7297 73.2391 59.898 73.1718 60.0942C73.1045 60.2961 73.0708 60.5317 73.0708 60.8064V63.3188H72.1511V58.4736Z" fill="white"/>
<path d="M82.5761 61.2326C82.5761 61.4457 82.621 61.6364 82.7163 61.8103C82.8061 61.9841 82.9294 62.1299 83.0808 62.2533C83.2322 62.3767 83.4061 62.472 83.6024 62.5393C83.7986 62.6066 84.0061 62.6402 84.2136 62.6402C84.4996 62.6402 84.7464 62.5729 84.9595 62.4383C85.1726 62.3038 85.3633 62.1299 85.5427 61.9112L86.2381 62.4439C85.7278 63.1057 85.0099 63.4365 84.0902 63.4365C83.7089 63.4365 83.3612 63.3693 83.0528 63.2403C82.7444 63.1113 82.4808 62.9318 82.2677 62.7019C82.0546 62.472 81.8863 62.2028 81.7742 61.8944C81.6564 61.5859 81.6003 61.2495 81.6003 60.8906C81.6003 60.5317 81.662 60.1952 81.791 59.8867C81.9144 59.5783 82.0882 59.3091 82.3126 59.0792C82.5313 58.8493 82.8005 58.6698 83.1033 58.5409C83.4117 58.4119 83.7426 58.3446 84.1071 58.3446C84.5389 58.3446 84.8978 58.4175 85.195 58.5689C85.4922 58.7203 85.7334 58.9166 85.924 59.1577C86.1147 59.3989 86.2549 59.6736 86.339 59.9765C86.4231 60.2793 86.468 60.5877 86.468 60.9018V61.227H82.5761V61.2326ZM85.4754 60.498C85.4698 60.2961 85.4362 60.1055 85.3801 59.9372C85.324 59.769 85.2343 59.6176 85.1221 59.4942C85.0044 59.3708 84.8641 59.2699 84.6903 59.197C84.5165 59.1241 84.3146 59.0904 84.0847 59.0904C83.8604 59.0904 83.6528 59.1353 83.4678 59.2194C83.2827 59.3035 83.1201 59.4157 82.9911 59.5503C82.8621 59.6849 82.7612 59.8363 82.6883 60.0045C82.6154 60.1728 82.5817 60.3354 82.5817 60.498H85.4754Z" fill="white"/>
<path d="M88.5819 58.4736H89.5016V59.2194H89.524C89.6418 58.9614 89.8381 58.754 90.1241 58.5913C90.4101 58.4287 90.741 58.3502 91.1167 58.3502C91.3466 58.3502 91.5709 58.3838 91.784 58.4567C91.9971 58.5296 92.1878 58.6362 92.3448 58.7876C92.5074 58.939 92.6308 59.1297 92.7262 59.3652C92.8215 59.6007 92.872 59.8755 92.872 60.1952V63.3132H91.9523V60.4588C91.9523 60.2344 91.9242 60.0438 91.8625 59.8811C91.8009 59.7185 91.7167 59.5895 91.6158 59.4942C91.5149 59.3933 91.3971 59.326 91.2625 59.2811C91.1279 59.2362 90.9933 59.2138 90.8475 59.2138C90.6569 59.2138 90.4774 59.2418 90.3148 59.3035C90.1521 59.3652 90.0063 59.4606 89.8829 59.5951C89.7596 59.7297 89.6642 59.898 89.5969 60.0998C89.5296 60.3017 89.496 60.5485 89.496 60.8233V63.3188H88.5763V58.4736H88.5819Z" fill="white"/>
<path d="M97.8804 59.2754H96.5626V61.4737C96.5626 61.6083 96.5682 61.7429 96.5738 61.8775C96.5794 62.0121 96.6075 62.1299 96.6523 62.2364C96.6972 62.343 96.7645 62.4271 96.8542 62.4944C96.9439 62.5617 97.0785 62.5897 97.258 62.5897C97.3645 62.5897 97.4767 62.5785 97.5944 62.5617C97.7122 62.5392 97.8131 62.5056 97.9085 62.4495V63.2851C97.8019 63.3468 97.6561 63.386 97.4823 63.4141C97.3084 63.4365 97.1739 63.4477 97.0785 63.4477C96.7252 63.4477 96.4504 63.3973 96.2541 63.3019C96.0579 63.201 95.9177 63.0776 95.8224 62.9206C95.7326 62.7636 95.6765 62.5897 95.6597 62.3934C95.6429 62.1972 95.6317 62.0009 95.6317 61.8046V59.2811H94.5718V58.4847H95.6317V57.1276H96.5514V58.4847H97.8692V59.2754H97.8804Z" fill="white"/>
<path d="M99.8478 60.8962C99.8478 60.5429 99.9151 60.212 100.05 59.9036C100.184 59.5951 100.364 59.326 100.594 59.096C100.824 58.8661 101.098 58.6811 101.412 58.5521C101.726 58.4175 102.063 58.3502 102.422 58.3502C102.781 58.3502 103.117 58.4175 103.431 58.5521C103.745 58.6867 104.014 58.8661 104.25 59.096C104.48 59.326 104.665 59.5951 104.794 59.9036C104.929 60.212 104.996 60.5429 104.996 60.8962C104.996 61.2495 104.929 61.5803 104.794 61.8944C104.659 62.2028 104.48 62.472 104.25 62.7019C104.02 62.9318 103.745 63.1113 103.431 63.2459C103.117 63.3805 102.781 63.4478 102.422 63.4478C102.063 63.4478 101.721 63.3805 101.412 63.2459C101.098 63.1113 100.829 62.9318 100.594 62.7019C100.364 62.472 100.179 62.2028 100.05 61.8944C99.9151 61.5859 99.8478 61.2495 99.8478 60.8962ZM100.829 60.8962C100.829 61.1429 100.868 61.3672 100.941 61.5747C101.014 61.7822 101.121 61.9617 101.255 62.1075C101.39 62.2533 101.558 62.371 101.754 62.4552C101.951 62.5393 102.175 62.5841 102.416 62.5841C102.663 62.5841 102.882 62.5393 103.078 62.4552C103.274 62.371 103.442 62.2533 103.577 62.1075C103.712 61.9617 103.818 61.7822 103.891 61.5747C103.964 61.3672 104.003 61.1429 104.003 60.8962C104.003 60.6494 103.964 60.4251 103.891 60.2176C103.818 60.0101 103.712 59.8307 103.577 59.6849C103.442 59.5391 103.274 59.4213 103.078 59.3372C102.882 59.2531 102.657 59.2082 102.416 59.2082C102.169 59.2082 101.951 59.2531 101.754 59.3372C101.558 59.4213 101.39 59.5391 101.255 59.6849C101.121 59.8307 101.014 60.0101 100.941 60.2176C100.868 60.4251 100.829 60.6494 100.829 60.8962Z" fill="white"/>
<path d="M109.752 59.6905C109.645 59.5559 109.511 59.4381 109.348 59.3484C109.186 59.2586 108.995 59.2082 108.759 59.2082C108.541 59.2082 108.35 59.253 108.193 59.3484C108.03 59.4381 107.952 59.5727 107.952 59.7521C107.952 59.8979 107.997 60.0101 108.092 60.0998C108.182 60.1896 108.294 60.2625 108.417 60.3129C108.541 60.369 108.675 60.4083 108.821 60.4363C108.967 60.4643 109.085 60.4868 109.191 60.5092C109.387 60.5597 109.572 60.6158 109.746 60.683C109.92 60.7503 110.072 60.8401 110.195 60.9466C110.318 61.0532 110.419 61.1878 110.492 61.3448C110.565 61.5018 110.599 61.6925 110.599 61.9168C110.599 62.1916 110.543 62.4215 110.425 62.6178C110.307 62.8141 110.161 62.9711 109.976 63.0944C109.791 63.2178 109.584 63.3075 109.348 63.358C109.113 63.4141 108.877 63.4421 108.636 63.4421C108.232 63.4421 107.879 63.3805 107.576 63.2571C107.273 63.1337 107.004 62.9094 106.763 62.5841L107.458 62.0121C107.61 62.1635 107.772 62.2925 107.957 62.4103C108.142 62.528 108.367 62.5841 108.63 62.5841C108.748 62.5841 108.866 62.5729 108.984 62.5505C109.101 62.528 109.208 62.4888 109.298 62.4383C109.387 62.3879 109.466 62.3206 109.522 62.242C109.578 62.1635 109.606 62.0738 109.606 61.9729C109.606 61.8383 109.561 61.7261 109.477 61.6364C109.393 61.5467 109.292 61.4794 109.169 61.4289C109.051 61.3784 108.922 61.3392 108.793 61.3055C108.658 61.2775 108.541 61.2494 108.44 61.227C108.243 61.1822 108.053 61.1261 107.879 61.0644C107.699 61.0027 107.542 60.9242 107.408 60.8176C107.273 60.7167 107.161 60.5877 107.083 60.4307C106.998 60.2737 106.959 60.0774 106.959 59.8475C106.959 59.5951 107.01 59.3764 107.116 59.1857C107.223 59.0007 107.363 58.8437 107.537 58.7203C107.711 58.5969 107.907 58.5072 108.131 58.4455C108.35 58.3838 108.574 58.3558 108.799 58.3558C109.124 58.3558 109.438 58.4175 109.741 58.5408C110.038 58.6642 110.279 58.8661 110.459 59.1521L109.752 59.6905Z" fill="white"/>
<path d="M116.453 56.7407C116.453 56.5557 116.52 56.3986 116.655 56.264C116.79 56.1295 116.947 56.0622 117.132 56.0622C117.317 56.0622 117.474 56.1295 117.608 56.264C117.743 56.3986 117.81 56.5557 117.81 56.7407C117.81 56.9258 117.743 57.0828 117.608 57.2174C117.474 57.352 117.317 57.4193 117.132 57.4193C116.947 57.4193 116.79 57.352 116.655 57.2174C116.52 57.0828 116.453 56.9202 116.453 56.7407ZM116.666 58.4736H117.586V63.3188H116.666V58.4736Z" fill="white"/>
<path d="M120.071 58.4736H120.99V59.2194H121.013C121.131 58.9614 121.327 58.754 121.613 58.5913C121.899 58.4287 122.23 58.3502 122.605 58.3502C122.835 58.3502 123.06 58.3838 123.273 58.4567C123.486 58.5296 123.677 58.6362 123.834 58.7876C123.996 58.939 124.12 59.1297 124.215 59.3652C124.31 59.6007 124.361 59.8755 124.361 60.1952V63.3132H123.441V60.4588C123.441 60.2344 123.413 60.0438 123.351 59.8811C123.29 59.7185 123.205 59.5895 123.105 59.4942C123.004 59.3933 122.886 59.326 122.751 59.2811C122.617 59.2362 122.482 59.2138 122.336 59.2138C122.146 59.2138 121.966 59.2418 121.803 59.3035C121.641 59.3652 121.495 59.4606 121.372 59.5951C121.248 59.7297 121.153 59.898 121.086 60.0998C121.018 60.3017 120.985 60.5485 120.985 60.8233V63.3188H120.065V58.4736H120.071Z" fill="white"/>
<path d="M131.623 63.3188H130.703V62.6234H130.681C130.501 62.8813 130.26 63.0832 129.952 63.2234C129.643 63.3636 129.324 63.4365 128.998 63.4365C128.623 63.4365 128.286 63.3692 127.983 63.2403C127.68 63.1113 127.422 62.9318 127.209 62.6963C126.996 62.4664 126.828 62.1972 126.716 61.8887C126.598 61.5803 126.542 61.2494 126.542 60.8849C126.542 60.526 126.598 60.1896 126.716 59.8811C126.834 59.5727 126.996 59.3035 127.209 59.0736C127.422 58.8437 127.68 58.6642 127.983 58.5352C128.286 58.4062 128.623 58.3389 128.998 58.3389C129.346 58.3389 129.671 58.4119 129.98 58.5577C130.288 58.7035 130.524 58.9053 130.686 59.1577H130.709V55.5799H131.628V63.3188H131.623ZM129.11 62.5841C129.357 62.5841 129.576 62.5393 129.772 62.4551C129.968 62.371 130.137 62.2533 130.271 62.1075C130.406 61.9616 130.512 61.7822 130.585 61.5747C130.658 61.3672 130.697 61.1429 130.697 60.8961C130.697 60.6494 130.658 60.4251 130.585 60.2176C130.512 60.0101 130.406 59.8306 130.271 59.6848C130.137 59.539 129.968 59.4213 129.772 59.3372C129.576 59.253 129.352 59.2082 129.11 59.2082C128.864 59.2082 128.645 59.253 128.449 59.3372C128.252 59.4213 128.084 59.539 127.95 59.6848C127.815 59.8306 127.708 60.0101 127.636 60.2176C127.563 60.4251 127.523 60.6494 127.523 60.8961C127.523 61.1429 127.563 61.3672 127.636 61.5747C127.708 61.7822 127.815 61.9616 127.95 62.1075C128.084 62.2533 128.252 62.371 128.449 62.4551C128.645 62.5393 128.864 62.5841 129.11 62.5841Z" fill="white"/>
<path d="M134.73 61.2326C134.73 61.4457 134.775 61.6364 134.87 61.8103C134.96 61.9841 135.083 62.1299 135.235 62.2533C135.386 62.3767 135.56 62.472 135.756 62.5393C135.952 62.6066 136.16 62.6402 136.367 62.6402C136.653 62.6402 136.9 62.5729 137.113 62.4383C137.326 62.3038 137.517 62.1299 137.697 61.9112L138.392 62.4439C137.882 63.1057 137.164 63.4365 136.244 63.4365C135.863 63.4365 135.515 63.3693 135.207 63.2403C134.898 63.1113 134.635 62.9318 134.421 62.7019C134.208 62.472 134.04 62.2028 133.928 61.8944C133.816 61.5859 133.754 61.2495 133.754 60.8906C133.754 60.5317 133.816 60.1952 133.945 59.8867C134.068 59.5783 134.242 59.3091 134.466 59.0792C134.685 58.8493 134.954 58.6698 135.257 58.5409C135.566 58.4119 135.896 58.3446 136.261 58.3446C136.693 58.3446 137.052 58.4175 137.349 58.5689C137.646 58.7203 137.887 58.9166 138.078 59.1577C138.269 59.3989 138.409 59.6736 138.493 59.9765C138.577 60.2793 138.622 60.5877 138.622 60.9018V61.227H134.73V61.2326ZM137.629 60.498C137.624 60.2961 137.59 60.1055 137.534 59.9372C137.478 59.769 137.388 59.6176 137.276 59.4942C137.158 59.3708 137.018 59.2699 136.844 59.197C136.67 59.1241 136.468 59.0904 136.238 59.0904C136.014 59.0904 135.807 59.1353 135.622 59.2194C135.437 59.3035 135.274 59.4157 135.145 59.5503C135.016 59.6849 134.915 59.8363 134.842 60.0045C134.769 60.1728 134.736 60.3354 134.736 60.498H137.629Z" fill="white"/>
<path d="M140.735 58.4735H141.655V59.1689H141.677C141.857 58.911 142.098 58.7091 142.407 58.5689C142.715 58.4231 143.035 58.3558 143.36 58.3558C143.736 58.3558 144.072 58.4231 144.375 58.5521C144.678 58.681 144.936 58.8605 145.149 59.096C145.362 59.3259 145.53 59.6007 145.642 59.9092C145.76 60.2176 145.816 60.5485 145.816 60.9074C145.816 61.2663 145.76 61.6027 145.642 61.9112C145.524 62.2196 145.362 62.4888 145.149 62.7187C144.936 62.9486 144.678 63.1281 144.375 63.2571C144.072 63.3861 143.736 63.4533 143.36 63.4533C143.012 63.4533 142.687 63.3804 142.378 63.2346C142.07 63.0888 141.834 62.887 141.672 62.6346H141.649V66.2124H140.73V58.4735H140.735ZM143.248 59.2138C143.001 59.2138 142.782 59.2586 142.586 59.3428C142.39 59.4269 142.221 59.5447 142.087 59.6905C141.952 59.8363 141.846 60.0157 141.773 60.2232C141.7 60.4307 141.661 60.655 141.661 60.9018C141.661 61.1485 141.7 61.3728 141.773 61.5803C141.846 61.7878 141.952 61.9673 142.087 62.1131C142.221 62.2589 142.39 62.3766 142.586 62.4608C142.782 62.5449 143.007 62.5897 143.248 62.5897C143.489 62.5897 143.713 62.5449 143.909 62.4608C144.106 62.3766 144.274 62.2589 144.409 62.1131C144.543 61.9673 144.65 61.7878 144.723 61.5803C144.795 61.3728 144.835 61.1485 144.835 60.9018C144.835 60.655 144.795 60.4307 144.723 60.2232C144.65 60.0157 144.543 59.8363 144.409 59.6905C144.274 59.5447 144.106 59.4269 143.909 59.3428C143.719 59.253 143.494 59.2138 143.248 59.2138Z" fill="white"/>
<path d="M148.699 61.2326C148.699 61.4457 148.744 61.6364 148.839 61.8103C148.929 61.9841 149.052 62.1299 149.204 62.2533C149.355 62.3767 149.529 62.472 149.725 62.5393C149.922 62.6066 150.129 62.6402 150.337 62.6402C150.623 62.6402 150.869 62.5729 151.083 62.4383C151.296 62.3038 151.486 62.1299 151.666 61.9112L152.361 62.4439C151.851 63.1057 151.133 63.4365 150.213 63.4365C149.832 63.4365 149.484 63.3693 149.176 63.2403C148.867 63.1113 148.604 62.9318 148.391 62.7019C148.178 62.472 148.009 62.2028 147.897 61.8944C147.779 61.5859 147.723 61.2495 147.723 60.8906C147.723 60.5317 147.785 60.1952 147.914 59.8867C148.037 59.5783 148.211 59.3091 148.436 59.0792C148.654 58.8493 148.923 58.6698 149.226 58.5409C149.535 58.4119 149.866 58.3446 150.23 58.3446C150.662 58.3446 151.021 58.4175 151.318 58.5689C151.615 58.7203 151.856 58.9166 152.047 59.1577C152.238 59.3989 152.378 59.6736 152.462 59.9765C152.546 60.2793 152.591 60.5877 152.591 60.9018V61.227H148.699V61.2326ZM151.598 60.498C151.593 60.2961 151.559 60.1055 151.503 59.9372C151.447 59.769 151.357 59.6176 151.245 59.4942C151.127 59.3708 150.987 59.2699 150.813 59.197C150.639 59.1241 150.438 59.0904 150.208 59.0904C149.983 59.0904 149.776 59.1353 149.591 59.2194C149.406 59.3035 149.243 59.4157 149.114 59.5503C148.985 59.6849 148.884 59.8363 148.811 60.0045C148.738 60.1728 148.705 60.3354 148.705 60.498H151.598Z" fill="white"/>
<path d="M154.705 58.4736H155.625V59.2194H155.647C155.765 58.9614 155.961 58.754 156.253 58.5913C156.539 58.4287 156.87 58.3502 157.245 58.3502C157.475 58.3502 157.7 58.3838 157.913 58.4567C158.126 58.5296 158.316 58.6362 158.473 58.7876C158.636 58.939 158.759 59.1297 158.855 59.3652C158.95 59.6007 158.995 59.8755 158.995 60.1952V63.3132H158.075V60.4588C158.075 60.2344 158.047 60.0438 157.986 59.8811C157.924 59.7185 157.84 59.5895 157.739 59.4942C157.638 59.3933 157.52 59.326 157.386 59.2811C157.251 59.2362 157.116 59.2138 156.971 59.2138C156.78 59.2138 156.6 59.2418 156.438 59.3035C156.275 59.3652 156.129 59.4606 156.006 59.5951C155.883 59.7297 155.787 59.898 155.72 60.0998C155.653 60.3017 155.619 60.5485 155.619 60.8233V63.3188H154.699V58.4736H154.705Z" fill="white"/>
<path d="M166.257 63.3188H165.337V62.6234H165.315C165.135 62.8813 164.894 63.0832 164.586 63.2234C164.277 63.3636 163.958 63.4365 163.633 63.4365C163.257 63.4365 162.92 63.3692 162.618 63.2403C162.315 63.1113 162.057 62.9318 161.844 62.6963C161.631 62.4664 161.462 62.1972 161.35 61.8887C161.232 61.5803 161.176 61.2494 161.176 60.8849C161.176 60.526 161.232 60.1896 161.35 59.8811C161.468 59.5727 161.631 59.3035 161.844 59.0736C162.057 58.8437 162.315 58.6642 162.618 58.5352C162.92 58.4062 163.257 58.3389 163.633 58.3389C163.98 58.3389 164.305 58.4119 164.614 58.5577C164.922 58.7035 165.158 58.9053 165.321 59.1577H165.343V55.5799H166.263V63.3188H166.257ZM163.745 62.5841C163.991 62.5841 164.21 62.5393 164.406 62.4551C164.603 62.371 164.771 62.2533 164.906 62.1075C165.04 61.9616 165.147 61.7822 165.22 61.5747C165.292 61.3672 165.332 61.1429 165.332 60.8961C165.332 60.6494 165.292 60.4251 165.22 60.2176C165.147 60.0101 165.04 59.8306 164.906 59.6848C164.771 59.539 164.603 59.4213 164.406 59.3372C164.21 59.253 163.986 59.2082 163.745 59.2082C163.498 59.2082 163.279 59.253 163.083 59.3372C162.887 59.4213 162.718 59.539 162.584 59.6848C162.449 59.8306 162.343 60.0101 162.27 60.2176C162.197 60.4251 162.158 60.6494 162.158 60.8961C162.158 61.1429 162.197 61.3672 162.27 61.5747C162.343 61.7822 162.449 61.9616 162.584 62.1075C162.718 62.2533 162.887 62.371 163.083 62.4551C163.279 62.5393 163.498 62.5841 163.745 62.5841Z" fill="white"/>
<path d="M169.364 61.2326C169.364 61.4457 169.409 61.6364 169.504 61.8103C169.594 61.9841 169.718 62.1299 169.869 62.2533C170.02 62.3767 170.194 62.472 170.39 62.5393C170.587 62.6066 170.794 62.6402 171.002 62.6402C171.288 62.6402 171.534 62.5729 171.748 62.4383C171.961 62.3038 172.151 62.1299 172.331 61.9112L173.026 62.4439C172.516 63.1057 171.798 63.4365 170.878 63.4365C170.497 63.4365 170.149 63.3693 169.841 63.2403C169.532 63.1113 169.269 62.9318 169.056 62.7019C168.843 62.472 168.674 62.2028 168.562 61.8944C168.445 61.5859 168.388 61.2495 168.388 60.8906C168.388 60.5317 168.45 60.1952 168.579 59.8867C168.702 59.5783 168.876 59.3091 169.101 59.0792C169.319 58.8493 169.589 58.6698 169.891 58.5409C170.2 58.4119 170.531 58.3446 170.895 58.3446C171.327 58.3446 171.686 58.4175 171.983 58.5689C172.28 58.7203 172.521 58.9166 172.712 59.1577C172.903 59.3989 173.043 59.6736 173.127 59.9765C173.211 60.2793 173.256 60.5877 173.256 60.9018V61.227H169.364V61.2326ZM172.269 60.498C172.264 60.2961 172.23 60.1055 172.174 59.9372C172.118 59.769 172.028 59.6176 171.916 59.4942C171.798 59.3708 171.658 59.2699 171.484 59.197C171.31 59.1241 171.108 59.0904 170.878 59.0904C170.654 59.0904 170.447 59.1353 170.261 59.2194C170.076 59.3035 169.914 59.4157 169.785 59.5503C169.656 59.6849 169.555 59.8363 169.482 60.0045C169.409 60.1728 169.375 60.3354 169.375 60.498H172.269Z" fill="white"/>
<path d="M175.37 58.4736H176.29V59.2194H176.312C176.43 58.9614 176.626 58.754 176.912 58.5913C177.198 58.4287 177.529 58.3502 177.905 58.3502C178.135 58.3502 178.359 58.3838 178.572 58.4567C178.785 58.5296 178.976 58.6362 179.133 58.7876C179.296 58.939 179.419 59.1297 179.514 59.3652C179.61 59.6007 179.66 59.8755 179.66 60.1952V63.3132H178.74V60.4588C178.74 60.2344 178.712 60.0438 178.651 59.8811C178.589 59.7185 178.511 59.5895 178.404 59.4942C178.303 59.3933 178.185 59.326 178.051 59.2811C177.916 59.2362 177.781 59.2138 177.636 59.2138C177.445 59.2138 177.266 59.2418 177.103 59.3035C176.94 59.3652 176.795 59.4606 176.671 59.5951C176.548 59.7297 176.452 59.898 176.385 60.0998C176.318 60.3017 176.284 60.5485 176.284 60.8233V63.3188H175.365V58.4736H175.37Z" fill="white"/>
<path d="M184.668 59.2754H183.35V61.4737C183.35 61.6083 183.356 61.7429 183.361 61.8775C183.367 62.0121 183.395 62.1299 183.44 62.2364C183.485 62.343 183.552 62.4271 183.642 62.4944C183.732 62.5617 183.866 62.5897 184.046 62.5897C184.152 62.5897 184.264 62.5785 184.382 62.5617C184.5 62.5392 184.601 62.5056 184.696 62.4495V63.2851C184.59 63.3468 184.444 63.386 184.27 63.4141C184.096 63.4365 183.961 63.4477 183.866 63.4477C183.513 63.4477 183.238 63.3973 183.042 63.3019C182.845 63.201 182.705 63.0776 182.61 62.9206C182.52 62.7636 182.464 62.5897 182.447 62.3934C182.43 62.1972 182.419 62.0009 182.419 61.8046V59.2811H181.359V58.4847H182.419V57.1276H183.339V58.4847H184.657V59.2754H184.668Z" fill="white"/>
<path d="M187.573 61.2326C187.573 61.4457 187.618 61.6364 187.713 61.8103C187.803 61.9841 187.926 62.1299 188.077 62.2533C188.229 62.3767 188.403 62.472 188.599 62.5393C188.795 62.6066 189.003 62.6402 189.21 62.6402C189.496 62.6402 189.743 62.5729 189.956 62.4383C190.169 62.3038 190.36 62.1299 190.539 61.9112L191.235 62.4439C190.724 63.1057 190.007 63.4365 189.087 63.4365C188.705 63.4365 188.358 63.3693 188.049 63.2403C187.741 63.1113 187.477 62.9318 187.264 62.7019C187.051 62.472 186.883 62.2028 186.771 61.8944C186.653 61.5859 186.597 61.2495 186.597 60.8906C186.597 60.5317 186.659 60.1952 186.788 59.8867C186.911 59.5783 187.085 59.3091 187.309 59.0792C187.528 58.8493 187.797 58.6698 188.1 58.5409C188.408 58.4119 188.739 58.3446 189.104 58.3446C189.535 58.3446 189.894 58.4175 190.192 58.5689C190.489 58.7203 190.73 58.9166 190.921 59.1577C191.111 59.3989 191.251 59.6736 191.336 59.9765C191.42 60.2793 191.465 60.5877 191.465 60.9018V61.227H187.573V61.2326ZM190.472 60.498C190.466 60.2961 190.433 60.1055 190.377 59.9372C190.321 59.769 190.231 59.6176 190.119 59.4942C190.001 59.3708 189.861 59.2699 189.687 59.197C189.513 59.1241 189.311 59.0904 189.081 59.0904C188.857 59.0904 188.649 59.1353 188.464 59.2194C188.279 59.3035 188.117 59.4157 187.988 59.5503C187.859 59.6849 187.758 59.8363 187.685 60.0045C187.612 60.1728 187.578 60.3354 187.578 60.498H190.472Z" fill="white"/>
<path d="M196.153 59.6905C196.046 59.5559 195.912 59.4381 195.749 59.3484C195.586 59.2586 195.396 59.2082 195.16 59.2082C194.941 59.2082 194.751 59.253 194.594 59.3484C194.431 59.4381 194.353 59.5727 194.353 59.7521C194.353 59.8979 194.397 60.0101 194.493 60.0998C194.582 60.1896 194.695 60.2625 194.818 60.3129C194.941 60.369 195.076 60.4083 195.222 60.4363C195.368 60.4643 195.485 60.4868 195.592 60.5092C195.788 60.5597 195.973 60.6158 196.147 60.683C196.321 60.7503 196.472 60.8401 196.596 60.9466C196.719 61.0532 196.82 61.1878 196.893 61.3448C196.966 61.5018 196.999 61.6925 196.999 61.9168C196.999 62.1916 196.943 62.4215 196.826 62.6178C196.708 62.8141 196.562 62.9711 196.377 63.0944C196.192 63.2178 195.984 63.3075 195.749 63.358C195.513 63.4141 195.278 63.4421 195.037 63.4421C194.633 63.4421 194.28 63.3805 193.977 63.2571C193.674 63.1337 193.405 62.9094 193.164 62.5841L193.859 62.0121C194.01 62.1635 194.173 62.2925 194.358 62.4103C194.543 62.528 194.768 62.5841 195.031 62.5841C195.149 62.5841 195.267 62.5729 195.384 62.5505C195.502 62.528 195.609 62.4888 195.698 62.4383C195.788 62.3879 195.867 62.3206 195.923 62.242C195.979 62.1635 196.007 62.0738 196.007 61.9729C196.007 61.8383 195.962 61.7261 195.878 61.6364C195.794 61.5467 195.693 61.4794 195.569 61.4289C195.452 61.3784 195.323 61.3392 195.194 61.3055C195.059 61.2775 194.941 61.2494 194.84 61.227C194.644 61.1822 194.453 61.1261 194.28 61.0644C194.106 61.0027 193.943 60.9242 193.809 60.8176C193.674 60.7167 193.562 60.5877 193.483 60.4307C193.399 60.2737 193.36 60.0774 193.36 59.8475C193.36 59.5951 193.41 59.3764 193.517 59.1857C193.623 59.0007 193.764 58.8437 193.938 58.7203C194.111 58.5969 194.308 58.5072 194.532 58.4455C194.751 58.3838 194.975 58.3558 195.199 58.3558C195.525 58.3558 195.839 58.4175 196.141 58.5408C196.439 58.6642 196.68 58.8661 196.859 59.1521L196.153 59.6905Z" fill="white"/>
</svg>
