<svg width="15" height="15" viewBox="0 0 15 15" fill="none" xmlns="http://www.w3.org/2000/svg">
<path d="M6.09375 1.875L6.09375 6.09375L1.875 6.09375C1.35732 6.09375 0.9375 6.51358 0.9375 7.03125L0.9375 7.96875C0.9375 8.48643 1.35732 8.90625 1.875 8.90625L6.09375 8.90625L6.09375 13.125C6.09375 13.6427 6.51357 14.0625 7.03125 14.0625L7.96875 14.0625C8.48643 14.0625 8.90625 13.6427 8.90625 13.125L8.90625 8.90625L13.125 8.90625C13.6427 8.90625 14.0625 8.48643 14.0625 7.96875L14.0625 7.03125C14.0625 6.51357 13.6427 6.09375 13.125 6.09375L8.90625 6.09375L8.90625 1.875C8.90625 1.35733 8.48643 0.937502 7.96875 0.937502L7.03125 0.937502C6.51357 0.937502 6.09375 1.35733 6.09375 1.875Z" fill="white"/>
</svg>
