<svg width="19" height="18" viewBox="0 0 19 18" fill="none" xmlns="http://www.w3.org/2000/svg">
<path d="M12.5 14C13.6046 14 14.5 13.1046 14.5 12C14.5 10.8954 13.6046 10 12.5 10C11.3954 10 10.5 10.8954 10.5 12C10.5 13.1046 11.3954 14 12.5 14Z" fill="#6EAEA9"/>
<path fill-rule="evenodd" clip-rule="evenodd" d="M3.5 0C1.84315 0 0.5 1.34315 0.5 3V15C0.5 16.6569 1.84315 18 3.5 18H15.5C17.1569 18 18.5 16.6569 18.5 15V3C18.5 1.34315 17.1569 0 15.5 0H3.5ZM2.5 15V5H16.5V15C16.5 15.5523 16.0523 16 15.5 16H3.5C2.94772 16 2.5 15.5523 2.5 15Z" fill="#6EAEA9"/>
</svg>
