<svg width="13" height="13" viewBox="0 0 13 13" fill="none" xmlns="http://www.w3.org/2000/svg">
<path d="M12.4092 7.09085C12.2525 7.09085 12.1022 7.15311 11.9914 7.26393C11.8805 7.37474 11.8183 7.52505 11.8183 7.68177V10.1713C11.8178 10.6079 11.6442 11.0265 11.3354 11.3353C11.0267 11.644 10.608 11.8177 10.1714 11.8182H2.82871C2.39207 11.8177 1.97346 11.644 1.66471 11.3353C1.35596 11.0265 1.1823 10.6079 1.18183 10.1713V7.68177C1.18183 7.52505 1.11957 7.37474 1.00875 7.26393C0.897936 7.15311 0.747635 7.09085 0.590915 7.09085C0.434194 7.09085 0.283893 7.15311 0.173075 7.26393C0.0622569 7.37474 0 7.52505 0 7.68177V10.1713C0.000782126 10.9213 0.299057 11.6403 0.829373 12.1706C1.35969 12.7009 2.07873 12.9992 2.82871 13H10.1714C10.9214 12.9992 11.6404 12.7009 12.1707 12.1706C12.7011 11.6403 12.9993 10.9213 13.0001 10.1713V7.68177C13.0001 7.52505 12.9379 7.37474 12.827 7.26393C12.7162 7.15311 12.5659 7.09085 12.4092 7.09085Z" fill="black"/>
<path d="M3.37234 4.55405L5.90914 2.01726V9.45451C5.90914 9.61123 5.97139 9.76153 6.08221 9.87235C6.19303 9.98317 6.34333 10.0454 6.50005 10.0454C6.65677 10.0454 6.80707 9.98317 6.91789 9.87235C7.02871 9.76153 7.09097 9.61123 7.09097 9.45451V2.01726L9.62776 4.55405C9.73921 4.66169 9.88848 4.72125 10.0434 4.71991C10.1983 4.71856 10.3466 4.65642 10.4561 4.54685C10.5657 4.43729 10.6278 4.28909 10.6292 4.13415C10.6305 3.97921 10.571 3.82995 10.4633 3.7185L6.91783 0.173012C6.80701 0.0622324 6.65674 0 6.50005 0C6.34336 0 6.19309 0.0622324 6.08227 0.173012L2.53679 3.7185C2.42915 3.82995 2.36959 3.97921 2.37093 4.13415C2.37228 4.28909 2.43443 4.43729 2.54399 4.54685C2.65355 4.65642 2.80175 4.71856 2.95669 4.71991C3.11163 4.72125 3.26089 4.66169 3.37234 4.55405Z" fill="black"/>
</svg>
